<svg width="120" height="129" viewBox="0 0 120 129" fill="none" xmlns="http://www.w3.org/2000/svg">
<mask id="path-1-inside-1_102_2443" fill="white">
<path d="M12.6798 98.9497C14.3279 96.1614 16.863 95.3843 19.4933 96.8315C22.0603 98.2793 24.5963 99.7612 27.005 101.491C29.4451 103.255 30.3648 105.833 29.1603 109.01C28.0831 111.87 26.7515 114.588 25.4523 117.341C24.6284 119.071 23.7722 120.73 22.8214 122.354C21.4271 124.719 19.3983 125.99 16.9581 126.202C15.1513 126.378 13.3763 126.413 11.1261 126.519C9.54145 126.413 7.48105 126.342 5.4845 126.06C4.12186 125.848 2.88617 125.142 2.4425 123.483C2.25242 122.706 2.28351 121.824 2.41028 121.012C2.69553 119.106 3.61499 117.482 4.40735 115.788C6.02362 112.293 7.67201 108.799 9.35168 105.339C10.3976 103.186 11.4438 100.997 12.6798 98.9497ZM101.221 96.521C103.617 95.6038 105.541 96.2385 107.055 98.5679C108.158 100.262 109.073 102.132 109.956 103.967C111.186 106.438 112.353 108.944 113.52 111.485C114.781 114.202 116.043 116.955 117.241 119.744C117.525 120.414 117.65 121.26 117.682 122.001C117.808 123.978 116.737 125.496 114.907 125.919C113.867 126.167 112.763 126.272 111.691 126.342C110.587 126.413 109.452 126.378 108.348 126.378V126.519C106.393 126.378 104.405 126.307 102.482 126.06C99.8957 125.778 97.9724 124.154 96.7111 121.649C94.7241 117.837 92.8945 113.92 91.0968 110.002C90.6556 109.015 90.4346 107.849 90.34 106.755C90.1194 104.32 91.2548 102.626 92.9259 101.426C94.6289 100.191 96.3954 99.0974 98.1613 98.0034C99.1388 97.4383 100.149 96.909 101.221 96.521ZM57.6896 3.68604C58.7968 2.44332 60.0312 2.12364 61.2335 2.90479C61.8662 3.33083 62.4992 3.93433 62.879 4.60889C63.8598 6.31317 64.7767 8.05328 65.631 9.82861C66.8965 12.4204 68.0985 15.0834 69.3322 17.7104C71.1991 21.7228 73.0658 25.7357 74.9327 29.7476C76.3879 32.8723 77.875 35.9612 79.3302 39.0854C80.6165 41.855 81.9143 44.6245 83.2218 47.394C84.5506 50.2702 85.9106 53.1111 87.2394 55.9868C88.5363 58.7211 89.8024 61.4899 91.0997 64.2241C92.7446 67.7745 94.4209 71.2542 96.0031 74.8403C96.4774 75.8345 96.794 76.9348 97.0782 78.0356C97.6478 80.4856 96.8888 82.5448 95.212 83.9653C93.6936 85.2434 92.0804 86.2733 90.4669 87.3032C87.6192 89.1137 84.7404 90.8538 81.8927 92.5933C78.8872 94.4399 75.8816 96.2505 72.8761 98.0972C70.1235 99.8014 67.371 101.506 64.587 103.139C63.0686 104.062 61.4858 104.63 60.632 104.63C57.8796 104.595 56.1712 103.778 54.5577 102.784C51.4258 100.902 48.3253 98.9845 45.2247 97.0669C40.0575 93.8951 34.9005 90.7118 29.754 87.5161C28.394 86.6995 27.0331 85.8828 25.7677 84.9243C24.9453 84.3205 24.1856 83.5037 23.5529 82.6519C22.3506 81.0186 22.2555 79.0659 22.9513 77.1841C23.9321 74.557 25.1031 71.9999 26.2736 69.479C28.0135 65.6443 29.8166 61.881 31.6202 58.0815C33.7396 53.5368 35.8919 48.9916 38.0431 44.4116C40.1943 39.8312 42.3459 35.1796 44.5284 30.564C46.3635 26.5874 48.2616 22.6108 50.1281 18.6343C51.6151 15.4743 53.0701 12.2426 54.589 9.08252C55.4746 7.20085 56.2973 5.21273 57.6896 3.68604ZM59.7784 44.4829C55.3172 53.9629 50.8564 63.4788 46.3956 73.0298C47.5978 73.7754 48.7362 74.5211 49.8751 75.1958C52.9757 77.1129 56.0767 78.9945 59.1769 80.9116C59.683 81.231 60.1259 81.2313 60.632 80.9478C63.4473 79.2077 66.2638 77.468 69.1115 75.728C70.5241 74.8524 71.9476 73.9644 73.382 73.0649C72.5272 70.6499 60.2598 44.7819 59.7784 44.4829Z"/>
</mask>
<path d="M12.6798 98.9497C14.3279 96.1614 16.863 95.3843 19.4933 96.8315C22.0603 98.2793 24.5963 99.7612 27.005 101.491C29.4451 103.255 30.3648 105.833 29.1603 109.01C28.0831 111.87 26.7515 114.588 25.4523 117.341C24.6284 119.071 23.7722 120.73 22.8214 122.354C21.4271 124.719 19.3983 125.99 16.9581 126.202C15.1513 126.378 13.3763 126.413 11.1261 126.519C9.54145 126.413 7.48105 126.342 5.4845 126.06C4.12186 125.848 2.88617 125.142 2.4425 123.483C2.25242 122.706 2.28351 121.824 2.41028 121.012C2.69553 119.106 3.61499 117.482 4.40735 115.788C6.02362 112.293 7.67201 108.799 9.35168 105.339C10.3976 103.186 11.4438 100.997 12.6798 98.9497ZM101.221 96.521C103.617 95.6038 105.541 96.2385 107.055 98.5679C108.158 100.262 109.073 102.132 109.956 103.967C111.186 106.438 112.353 108.944 113.52 111.485C114.781 114.202 116.043 116.955 117.241 119.744C117.525 120.414 117.65 121.26 117.682 122.001C117.808 123.978 116.737 125.496 114.907 125.919C113.867 126.167 112.763 126.272 111.691 126.342C110.587 126.413 109.452 126.378 108.348 126.378V126.519C106.393 126.378 104.405 126.307 102.482 126.06C99.8957 125.778 97.9724 124.154 96.7111 121.649C94.7241 117.837 92.8945 113.92 91.0968 110.002C90.6556 109.015 90.4346 107.849 90.34 106.755C90.1194 104.32 91.2548 102.626 92.9259 101.426C94.6289 100.191 96.3954 99.0974 98.1613 98.0034C99.1388 97.4383 100.149 96.909 101.221 96.521ZM57.6896 3.68604C58.7968 2.44332 60.0312 2.12364 61.2335 2.90479C61.8662 3.33083 62.4992 3.93433 62.879 4.60889C63.8598 6.31317 64.7767 8.05328 65.631 9.82861C66.8965 12.4204 68.0985 15.0834 69.3322 17.7104C71.1991 21.7228 73.0658 25.7357 74.9327 29.7476C76.3879 32.8723 77.875 35.9612 79.3302 39.0854C80.6165 41.855 81.9143 44.6245 83.2218 47.394C84.5506 50.2702 85.9106 53.1111 87.2394 55.9868C88.5363 58.7211 89.8024 61.4899 91.0997 64.2241C92.7446 67.7745 94.4209 71.2542 96.0031 74.8403C96.4774 75.8345 96.794 76.9348 97.0782 78.0356C97.6478 80.4856 96.8888 82.5448 95.212 83.9653C93.6936 85.2434 92.0804 86.2733 90.4669 87.3032C87.6192 89.1137 84.7404 90.8538 81.8927 92.5933C78.8872 94.4399 75.8816 96.2505 72.8761 98.0972C70.1235 99.8014 67.371 101.506 64.587 103.139C63.0686 104.062 61.4858 104.63 60.632 104.63C57.8796 104.595 56.1712 103.778 54.5577 102.784C51.4258 100.902 48.3253 98.9845 45.2247 97.0669C40.0575 93.8951 34.9005 90.7118 29.754 87.5161C28.394 86.6995 27.0331 85.8828 25.7677 84.9243C24.9453 84.3205 24.1856 83.5037 23.5529 82.6519C22.3506 81.0186 22.2555 79.0659 22.9513 77.1841C23.9321 74.557 25.1031 71.9999 26.2736 69.479C28.0135 65.6443 29.8166 61.881 31.6202 58.0815C33.7396 53.5368 35.8919 48.9916 38.0431 44.4116C40.1943 39.8312 42.3459 35.1796 44.5284 30.564C46.3635 26.5874 48.2616 22.6108 50.1281 18.6343C51.6151 15.4743 53.0701 12.2426 54.589 9.08252C55.4746 7.20085 56.2973 5.21273 57.6896 3.68604ZM59.7784 44.4829C55.3172 53.9629 50.8564 63.4788 46.3956 73.0298C47.5978 73.7754 48.7362 74.5211 49.8751 75.1958C52.9757 77.1129 56.0767 78.9945 59.1769 80.9116C59.683 81.231 60.1259 81.2313 60.632 80.9478C63.4473 79.2077 66.2638 77.468 69.1115 75.728C70.5241 74.8524 71.9476 73.9644 73.382 73.0649C72.5272 70.6499 60.2598 44.7819 59.7784 44.4829Z" fill="#606060"/>
<path d="M12.6798 98.9497L14.392 99.9833L14.3968 99.9753L14.4015 99.9674L12.6798 98.9497ZM19.4933 96.8315L20.4758 95.0895L20.4666 95.0843L20.4574 95.0793L19.4933 96.8315ZM27.005 101.491L28.1771 99.8701L28.1715 99.8661L27.005 101.491ZM29.1603 109.01L27.2901 108.301L27.2887 108.305L29.1603 109.01ZM25.4523 117.341L27.2579 118.201L27.261 118.195L25.4523 117.341ZM22.8214 122.354L24.5443 123.37L24.5474 123.365L22.8214 122.354ZM16.9581 126.202L16.7851 124.209L16.7746 124.21L16.7641 124.211L16.9581 126.202ZM11.1261 126.519L10.993 128.515L11.1064 128.522L11.2199 128.517L11.1261 126.519ZM5.4845 126.06L5.1771 128.036L5.19079 128.038L5.2045 128.04L5.4845 126.06ZM2.4425 123.483L0.499875 123.959L0.504924 123.979L0.510408 124L2.4425 123.483ZM2.41028 121.012L4.38636 121.321L4.38825 121.308L2.41028 121.012ZM4.40735 115.788L6.21905 116.635L6.22261 116.627L4.40735 115.788ZM9.35168 105.339L7.55267 104.466L7.55254 104.466L9.35168 105.339ZM101.221 96.521L101.901 98.4016L101.919 98.3954L101.936 98.3889L101.221 96.521ZM107.055 98.5679L105.378 99.6577L105.379 99.6596L107.055 98.5679ZM109.956 103.967L108.154 104.834L108.16 104.847L108.166 104.859L109.956 103.967ZM113.52 111.485L111.702 112.319L111.706 112.327L113.52 111.485ZM117.241 119.744L119.083 118.964L119.079 118.954L117.241 119.744ZM117.682 122.001L115.684 122.086L115.684 122.108L115.686 122.129L117.682 122.001ZM114.907 125.919L114.456 123.971L114.445 123.974L114.907 125.919ZM111.691 126.342L111.819 128.338L111.822 128.338L111.691 126.342ZM108.348 126.378L108.348 124.378L106.348 124.378V126.378H108.348ZM108.348 126.519L108.204 128.514L110.348 128.668V126.519H108.348ZM102.482 126.06L102.736 124.076L102.718 124.074L102.699 124.072L102.482 126.06ZM96.7111 121.649L98.4975 120.75L98.4911 120.737L98.4845 120.724L96.7111 121.649ZM91.0968 110.002L89.2707 110.818L89.2748 110.827L89.279 110.837L91.0968 110.002ZM90.34 106.755L92.3325 106.583L92.3318 106.575L90.34 106.755ZM92.9259 101.426L94.0926 103.051L94.1 103.045L92.9259 101.426ZM98.1613 98.0034L97.1603 96.2719L97.1339 96.2872L97.1079 96.3033L98.1613 98.0034ZM57.6896 3.68604L59.1673 5.0337L59.1751 5.02515L59.1828 5.0165L57.6896 3.68604ZM61.2335 2.90479L62.3506 1.24583L62.3369 1.23664L62.3231 1.22767L61.2335 2.90479ZM62.879 4.60889L61.1363 5.59014L61.1409 5.59831L61.1456 5.60644L62.879 4.60889ZM65.631 9.82861L63.8288 10.6959L63.8338 10.7061L65.631 9.82861ZM69.3322 17.7104L71.1455 16.8667L71.1425 16.8603L69.3322 17.7104ZM74.9327 29.7476L73.1195 30.5914L73.1197 30.5919L74.9327 29.7476ZM79.3302 39.0854L81.1441 38.243L81.1432 38.241L79.3302 39.0854ZM83.2218 47.394L85.0374 46.5553L85.0339 46.5477L85.0304 46.5402L83.2218 47.394ZM87.2394 55.9868L85.4238 56.8257L85.428 56.8348L85.4323 56.8439L87.2394 55.9868ZM91.0997 64.2241L92.9144 63.3834L92.9106 63.3751L92.9066 63.3668L91.0997 64.2241ZM96.0031 74.8403L94.1732 75.6476L94.1852 75.6748L94.198 75.7017L96.0031 74.8403ZM97.0782 78.0356L99.0263 77.5828L99.0208 77.5591L99.0147 77.5356L97.0782 78.0356ZM95.212 83.9653L96.5 85.4955L96.5048 85.4913L95.212 83.9653ZM90.4669 87.3032L91.54 88.991L91.5431 88.989L90.4669 87.3032ZM81.8927 92.5933L80.8501 90.8865L80.8457 90.8892L81.8927 92.5933ZM72.8761 98.0972L71.8291 96.3931L71.8233 96.3967L72.8761 98.0972ZM64.587 103.139L63.575 101.414L63.5616 101.422L63.5483 101.43L64.587 103.139ZM60.632 104.63L60.6063 106.63L60.6191 106.63H60.632V104.63ZM54.5577 102.784L55.607 101.081L55.5974 101.075L55.5878 101.069L54.5577 102.784ZM45.2247 97.0669L46.2767 95.3659L46.271 95.3624L45.2247 97.0669ZM29.754 87.5161L30.8091 85.817L30.7964 85.8091L30.7836 85.8014L29.754 87.5161ZM25.7677 84.9243L26.9752 83.33L26.9633 83.321L26.9513 83.3121L25.7677 84.9243ZM23.5529 82.6519L21.9422 83.8375L21.9473 83.8444L23.5529 82.6519ZM22.9513 77.1841L21.0776 76.4846L21.0754 76.4904L22.9513 77.1841ZM26.2736 69.479L28.0876 70.3212L28.0912 70.3133L28.0948 70.3054L26.2736 69.479ZM31.6202 58.0815L33.427 58.9393L33.4328 58.9268L31.6202 58.0815ZM38.0431 44.4116L39.8533 45.2619L39.8534 45.2618L38.0431 44.4116ZM44.5284 30.564L46.3365 31.4189L46.3405 31.4105L46.3444 31.402L44.5284 30.564ZM50.1281 18.6343L48.3184 17.7827L48.3176 17.7845L50.1281 18.6343ZM54.589 9.08252L56.3916 9.94895L56.3951 9.9416L56.3986 9.93421L54.589 9.08252ZM59.7784 44.4829L60.8337 42.784L58.9254 41.5987L57.9688 43.6313L59.7784 44.4829ZM46.3956 73.0298L44.5835 72.1834L43.8318 73.793L45.3414 74.7294L46.3956 73.0298ZM49.8751 75.1958L50.9269 73.4947L50.9108 73.4847L50.8945 73.4751L49.8751 75.1958ZM59.1769 80.9116L60.2442 79.2202L60.2365 79.2154L60.2288 79.2106L59.1769 80.9116ZM60.632 80.9478L61.6095 82.6926L61.6469 82.6716L61.6834 82.6491L60.632 80.9478ZM69.1115 75.728L70.1543 77.4347L70.1652 77.4279L69.1115 75.728ZM73.382 73.0649L74.4445 74.7593L75.802 73.9081L75.2673 72.3976L73.382 73.0649ZM12.6798 98.9497L14.4015 99.9674C15.0426 98.8828 15.7322 98.3917 16.3099 98.2128C16.8662 98.0405 17.5963 98.0705 18.5292 98.5838L19.4933 96.8315L20.4574 95.0793C18.76 94.1454 16.9074 93.8403 15.1266 94.3918C13.3671 94.9367 11.9651 96.2283 10.9581 97.9321L12.6798 98.9497ZM19.4933 96.8315L18.5108 98.5736C21.0678 100.016 23.5237 101.453 25.8385 103.115L27.005 101.491L28.1715 99.8661C25.6689 98.0692 23.0527 96.5428 20.4758 95.0895L19.4933 96.8315ZM27.005 101.491L25.8329 103.111C26.7717 103.79 27.3027 104.537 27.5361 105.303C27.7684 106.066 27.7662 107.046 27.2901 108.301L29.1603 109.01L31.0304 109.719C31.7589 107.798 31.8991 105.9 31.3626 104.138C30.8273 102.38 29.6784 100.956 28.1771 99.8701L27.005 101.491ZM29.1603 109.01L27.2887 108.305C26.2474 111.069 24.9615 113.694 23.6435 116.488L25.4523 117.341L27.261 118.195C28.5415 115.481 29.9187 112.67 31.0319 109.715L29.1603 109.01ZM25.4523 117.341L23.6466 116.481C22.8405 118.174 22.0106 119.78 21.0955 121.343L22.8214 122.354L24.5474 123.365C25.5337 121.68 26.4164 119.968 27.2579 118.201L25.4523 117.341ZM22.8214 122.354L21.0985 121.338C20.0125 123.18 18.5428 124.057 16.7851 124.209L16.9581 126.202L17.1311 128.194C20.2537 127.923 22.8417 126.258 24.5443 123.37L22.8214 122.354ZM16.9581 126.202L16.7641 124.211C15.0239 124.381 13.3524 124.412 11.0323 124.521L11.1261 126.519L11.2199 128.517C13.4002 128.414 15.2786 128.375 17.1522 128.192L16.9581 126.202ZM11.1261 126.519L11.2592 124.523C9.58733 124.412 7.66363 124.348 5.76449 124.08L5.4845 126.06L5.2045 128.04C7.29847 128.336 9.49558 128.415 10.993 128.515L11.1261 126.519ZM5.4845 126.06L5.79189 124.084C5.34178 124.014 5.03516 123.88 4.83665 123.728C4.66491 123.596 4.48712 123.387 4.3746 122.966L2.4425 123.483L0.510408 124C0.841557 125.238 1.50345 126.212 2.40113 126.901C3.27204 127.569 4.26458 127.894 5.1771 128.036L5.4845 126.06ZM2.4425 123.483L4.38513 123.007C4.28231 122.587 4.28073 121.997 4.38632 121.321L2.41028 121.012L0.434238 120.704C0.286283 121.651 0.222537 122.826 0.499875 123.959L2.4425 123.483ZM2.41028 121.012L4.38825 121.308C4.61778 119.774 5.33645 118.522 6.21903 116.635L4.40735 115.788L2.59567 114.94C1.89354 116.442 0.773276 118.438 0.432303 120.716L2.41028 121.012ZM4.40735 115.788L6.22261 116.627C7.83467 113.142 9.47763 109.659 11.1508 106.213L9.35168 105.339L7.55254 104.466C5.86639 107.939 4.21257 111.444 2.59209 114.948L4.40735 115.788ZM9.35168 105.339L11.1507 106.213C12.2092 104.034 13.213 101.936 14.392 99.9833L12.6798 98.9497L10.9676 97.9161C9.67456 100.058 8.58594 102.338 7.55267 104.466L9.35168 105.339ZM101.221 96.521L101.936 98.3889C102.82 98.0502 103.403 98.0746 103.815 98.2172C104.241 98.3645 104.782 98.7402 105.378 99.6577L107.055 98.5679L108.732 97.478C107.814 96.0662 106.636 94.9599 105.122 94.4367C103.596 93.9089 102.018 94.0745 100.506 94.6531L101.221 96.521ZM107.055 98.5679L105.379 99.6596C106.402 101.23 107.266 102.989 108.154 104.834L109.956 103.967L111.758 103.1C110.88 101.275 109.914 99.293 108.731 97.4761L107.055 98.5679ZM109.956 103.967L108.166 104.859C109.381 107.3 110.537 109.782 111.702 112.319L113.52 111.485L115.337 110.65C114.169 108.105 112.991 105.576 111.747 103.076L109.956 103.967ZM113.52 111.485L111.706 112.327C112.965 115.04 114.217 117.772 115.404 120.533L117.241 119.744L119.079 118.954C117.869 116.138 116.597 113.364 115.334 110.643L113.52 111.485ZM117.241 119.744L115.4 120.523C115.551 120.882 115.657 121.46 115.684 122.086L117.682 122.001L119.68 121.917C119.644 121.061 119.499 119.946 119.083 118.964L117.241 119.744ZM117.682 122.001L115.686 122.129C115.755 123.213 115.252 123.787 114.456 123.971L114.907 125.919L115.359 127.868C118.222 127.205 119.861 124.743 119.678 121.874L117.682 122.001ZM114.907 125.919L114.445 123.974C113.574 124.18 112.606 124.278 111.559 124.347L111.691 126.342L111.822 128.338C112.919 128.266 114.16 128.153 115.37 127.865L114.907 125.919ZM111.691 126.342L111.562 124.346C110.544 124.412 109.536 124.378 108.348 124.378L108.348 126.378L108.348 128.378C109.368 128.378 110.629 128.415 111.819 128.338L111.691 126.342ZM108.348 126.378H106.348V126.519H108.348H110.348V126.378H108.348ZM108.348 126.519L108.492 124.524C106.437 124.376 104.587 124.314 102.736 124.076L102.482 126.06L102.227 128.044C104.223 128.3 106.348 128.38 108.204 128.514L108.348 126.519ZM102.482 126.06L102.699 124.072C100.954 123.881 99.5381 122.817 98.4975 120.75L96.7111 121.649L94.9247 122.548C96.4067 125.492 98.8379 127.674 102.264 128.048L102.482 126.06ZM96.7111 121.649L98.4845 120.724C96.5225 116.961 94.7104 113.082 92.9146 109.168L91.0968 110.002L89.279 110.837C91.0785 114.758 92.9258 118.714 94.9376 122.573L96.7111 121.649ZM91.0968 110.002L92.9229 109.187C92.6073 108.48 92.4169 107.559 92.3325 106.583L90.34 106.755L88.3474 106.928C88.4522 108.14 88.7038 109.549 89.2707 110.818L91.0968 110.002ZM90.34 106.755L92.3318 106.575C92.1905 105.015 92.8435 103.948 94.0926 103.051L92.9259 101.426L91.7592 99.8018C89.6661 101.305 88.0483 103.626 88.3481 106.936L90.34 106.755ZM92.9259 101.426L94.1 103.045C95.7344 101.86 97.4387 100.804 99.2146 99.7036L98.1613 98.0034L97.1079 96.3033C95.3522 97.391 93.5235 98.5225 91.7518 99.8071L92.9259 101.426ZM98.1613 98.0034L99.1622 99.7349C100.099 99.1933 100.991 98.7309 101.901 98.4016L101.221 96.521L100.54 94.6404C99.3059 95.087 98.1785 95.6833 97.1603 96.2719L98.1613 98.0034ZM57.6896 3.68604L59.1828 5.0165C59.5634 4.58943 59.8093 4.50053 59.8749 4.4854C59.9017 4.47924 59.9164 4.47979 59.9358 4.48366C59.9592 4.48835 60.028 4.50659 60.1439 4.5819L61.2335 2.90479L62.3231 1.22767C61.3237 0.57833 60.165 0.313787 58.9769 0.587522C57.8479 0.847624 56.923 1.53992 56.1963 2.35557L57.6896 3.68604ZM61.2335 2.90479L60.1164 4.56374C60.5723 4.87071 60.9513 5.2616 61.1363 5.59014L62.879 4.60889L64.6218 3.62763C64.0471 2.60706 63.1601 1.79094 62.3506 1.24583L61.2335 2.90479ZM62.879 4.60889L61.1456 5.60644C62.1015 7.26764 62.9955 8.96425 63.8288 10.6958L65.631 9.82861L67.4332 8.96138C66.5578 7.14231 65.618 5.3587 64.6125 3.61133L62.879 4.60889ZM65.631 9.82861L63.8338 10.7061C65.0915 13.282 66.2699 15.8947 67.5218 18.5606L69.3322 17.7104L71.1425 16.8603C69.9271 14.2722 68.7014 11.5588 67.4282 8.9511L65.631 9.82861ZM69.3322 17.7104L67.5188 18.5542C69.3856 22.5663 71.2525 26.5794 73.1195 30.5914L74.9327 29.7476L76.746 28.9038C74.8791 24.8919 73.0125 20.8794 71.1455 16.8667L69.3322 17.7104ZM74.9327 29.7476L73.1197 30.5919C73.8505 32.161 74.5888 33.7202 75.3239 35.2726C76.0599 36.827 76.7928 38.3745 77.5172 39.9299L79.3302 39.0854L81.1432 38.241C80.4125 36.6722 79.6742 35.1131 78.9391 33.5607C78.203 32.0065 77.4702 30.4588 76.7458 28.9032L74.9327 29.7476ZM79.3302 39.0854L77.5163 39.9279C78.8045 42.7016 80.1041 45.4749 81.4132 48.2479L83.2218 47.394L85.0304 46.5402C83.7245 43.7741 82.4285 41.0084 81.1441 38.243L79.3302 39.0854ZM83.2218 47.394L81.4062 48.2328C82.0739 49.6782 82.749 51.1136 83.4208 52.5418C84.0935 53.9721 84.7628 55.3951 85.4238 56.8257L87.2394 55.9868L89.0549 55.1479C88.3872 53.7029 87.7121 52.2676 87.0404 50.8394C86.3677 49.4092 85.6984 47.9861 85.0374 46.5553L83.2218 47.394ZM87.2394 55.9868L85.4323 56.8439C86.0773 58.2036 86.7151 59.573 87.3564 60.9499C87.9967 62.3247 88.6406 63.7069 89.2928 65.0815L91.0997 64.2241L92.9066 63.3668C92.2615 62.0071 91.6236 60.6378 90.9824 59.261C90.3421 57.8864 89.6984 56.5042 89.0464 55.1297L87.2394 55.9868ZM91.0997 64.2241L89.285 65.0649C90.9471 68.6524 92.6005 72.0828 94.1732 75.6476L96.0031 74.8403L97.8329 74.033C96.2414 70.4256 94.5421 66.8966 92.9144 63.3834L91.0997 64.2241ZM96.0031 74.8403L94.198 75.7017C94.5836 76.5096 94.8613 77.4497 95.1418 78.5357L97.0782 78.0356L99.0147 77.5356C98.7266 76.42 98.3713 75.1594 97.8081 73.979L96.0031 74.8403ZM97.0782 78.0356L95.1302 78.4885C95.5316 80.2151 95.0185 81.5081 93.9192 82.4393L95.212 83.9653L96.5048 85.4913C98.7591 83.5816 99.764 80.7561 99.0263 77.5828L97.0782 78.0356ZM95.212 83.9653L93.9241 82.4352C92.5223 83.6151 91.0199 84.5775 89.3908 85.6174L90.4669 87.3032L91.5431 88.989C93.1409 87.969 94.8649 86.8717 96.4999 85.4955L95.212 83.9653ZM90.4669 87.3032L89.3939 85.6154C86.5658 87.4134 83.709 89.1402 80.8501 90.8865L81.8927 92.5933L82.9353 94.3C85.7718 92.5673 88.6727 90.8139 91.54 88.991L90.4669 87.3032ZM81.8927 92.5933L80.8457 90.8892C79.3473 91.8099 77.8482 92.7219 76.3449 93.6366C74.8427 94.5505 73.3362 95.4671 71.8291 96.3931L72.8761 98.0972L73.9231 99.8012C75.4215 98.8805 76.9206 97.9685 78.4239 97.0538C79.9261 96.1399 81.4326 95.2233 82.9397 94.2973L81.8927 92.5933ZM72.8761 98.0972L71.8233 96.3967C69.0672 98.1032 66.3349 99.7949 63.575 101.414L64.587 103.139L65.5991 104.864C68.4071 103.217 71.1799 101.5 73.9289 99.7976L72.8761 98.0972ZM64.587 103.139L63.5483 101.43C62.891 101.83 62.2296 102.146 61.6631 102.356C61.3806 102.461 61.1383 102.534 60.9451 102.579C60.8495 102.601 60.7733 102.615 60.7161 102.622C60.6576 102.63 60.631 102.63 60.632 102.63V104.63V106.63C61.4128 106.63 62.2856 106.392 63.0574 106.105C63.8754 105.801 64.7646 105.372 65.6258 104.848L64.587 103.139ZM60.632 104.63L60.6576 102.631C58.3865 102.601 57.0331 101.96 55.607 101.081L54.5577 102.784L53.5085 104.486C55.3092 105.596 57.3727 106.589 60.6063 106.63L60.632 104.63ZM54.5577 102.784L55.5878 101.069C52.4687 99.1952 49.379 97.2846 46.2767 95.3659L45.2247 97.0669L44.1727 98.7679C47.2716 100.684 50.3829 102.608 53.5277 104.498L54.5577 102.784ZM45.2247 97.0669L46.271 95.3624C41.1066 92.1923 35.9526 89.0108 30.8091 85.817L29.754 87.5161L28.699 89.2152C33.8485 92.4127 39.0084 95.5978 44.1785 98.7714L45.2247 97.0669ZM29.754 87.5161L30.7836 85.8014C29.4077 84.9754 28.1405 84.2126 26.9752 83.33L25.7677 84.9243L24.5602 86.5186C25.9258 87.5529 27.3803 88.4237 28.7245 89.2308L29.754 87.5161ZM25.7677 84.9243L26.9513 83.3121C26.3334 82.8585 25.7096 82.2014 25.1584 81.4593L23.5529 82.6519L21.9473 83.8444C22.6616 84.806 23.5571 85.7825 24.5841 86.5365L25.7677 84.9243ZM23.5529 82.6519L25.1635 81.4662C24.4402 80.4836 24.3137 79.2663 24.8272 77.8777L22.9513 77.1841L21.0754 76.4904C20.1972 78.8654 20.2611 81.5537 21.9422 83.8375L23.5529 82.6519ZM22.9513 77.1841L24.825 77.8836C25.7755 75.3376 26.916 72.8446 28.0876 70.3212L26.2736 69.479L24.4595 68.6368C23.2902 71.1553 22.0886 73.7764 21.0776 76.4846L22.9513 77.1841ZM26.2736 69.479L28.0948 70.3054C29.8257 66.4908 31.6189 62.7481 33.427 58.9392L31.6202 58.0815L29.8135 57.2239C28.0143 61.0139 26.2013 64.7979 24.4523 68.6526L26.2736 69.479ZM31.6202 58.0815L33.4328 58.9268C35.551 54.3847 37.6983 49.8501 39.8533 45.2619L38.0431 44.4116L36.2328 43.5613C34.0855 48.1331 31.9283 52.6888 29.8076 57.2363L31.6202 58.0815ZM38.0431 44.4116L39.8534 45.2618C42.0135 40.6625 44.1532 36.0361 46.3365 31.4189L44.5284 30.564L42.7204 29.709C40.5385 34.3231 38.3751 38.9999 36.2328 43.5614L38.0431 44.4116ZM44.5284 30.564L46.3444 31.402C48.1763 27.4322 50.0642 23.4774 51.9385 19.484L50.1281 18.6343L48.3176 17.7845C46.459 21.7442 44.5506 25.7426 42.7125 29.726L44.5284 30.564ZM50.1281 18.6343L51.9377 19.4859C53.4497 16.2729 54.8716 13.1112 56.3916 9.94895L54.589 9.08252L52.7864 8.21609C51.2685 11.3739 49.7806 14.6757 48.3184 17.7827L50.1281 18.6343ZM54.589 9.08252L56.3986 9.93421C57.3542 7.90392 58.0319 6.2788 59.1673 5.0337L57.6896 3.68604L56.2118 2.33837C54.5627 4.14666 53.5951 6.49779 52.7794 8.23082L54.589 9.08252ZM59.7784 44.4829L57.9688 43.6313C53.5067 53.1131 49.0451 62.6308 44.5835 72.1834L46.3956 73.0298L48.2077 73.8761C52.6677 64.3269 57.1277 54.8127 61.5881 45.3345L59.7784 44.4829ZM46.3956 73.0298L45.3414 74.7294C46.4809 75.4362 47.6996 76.2317 48.8558 76.9165L49.8751 75.1958L50.8945 73.4751C49.7728 72.8106 48.7146 72.1146 47.4498 71.3302L46.3956 73.0298ZM49.8751 75.1958L48.8233 76.8969C50.3778 77.858 51.9318 78.8099 53.4815 79.7592C55.0324 80.7092 56.5791 81.6567 58.125 82.6126L59.1769 80.9116L60.2288 79.2106C58.6745 78.2494 57.1206 77.2976 55.5709 76.3482C54.0199 75.3982 52.4731 74.4507 50.9269 73.4947L49.8751 75.1958ZM59.1769 80.9116L58.1096 82.603C58.5892 82.9057 59.1782 83.1422 59.866 83.1554C60.5504 83.1686 61.1379 82.9568 61.6095 82.6926L60.632 80.9478L59.6544 79.203C59.6199 79.2223 59.7329 79.1521 59.9428 79.1562C60.1562 79.1603 60.2707 79.2369 60.2442 79.2202L59.1769 80.9116ZM60.632 80.9478L61.6834 82.6491C64.4991 80.9089 67.3115 79.1717 70.1542 77.4347L69.1115 75.728L68.0687 74.0214C65.2161 75.7644 62.3956 77.5066 59.5805 79.2465L60.632 80.9478ZM69.1115 75.728L70.1652 77.4279C71.5811 76.5503 73.0075 75.6605 74.4445 74.7593L73.382 73.0649L72.3194 71.3705C70.8877 72.2683 69.4672 73.1545 68.0577 74.0281L69.1115 75.728ZM73.382 73.0649L75.2673 72.3976C75.0144 71.6829 74.0334 69.502 72.7795 66.7843C71.4977 64.0063 69.8658 60.53 68.2466 57.1221C66.6277 53.7148 65.0183 50.3691 63.7818 47.8532C63.1644 46.597 62.6352 45.538 62.2425 44.7788C62.0475 44.402 61.8775 44.0822 61.743 43.8438C61.6776 43.7279 61.6066 43.6063 61.537 43.4986C61.5037 43.4471 61.4524 43.3701 61.3887 43.2882C61.3821 43.2797 61.1794 42.9987 60.8337 42.784L59.7784 44.4829L58.7232 46.1819C58.5177 46.0542 58.3869 45.9192 58.3454 45.8757C58.2883 45.816 58.2489 45.7666 58.2303 45.7427C58.2094 45.7158 58.1952 45.6956 58.1886 45.6861C58.1848 45.6807 58.1821 45.6767 58.1805 45.6742C58.1788 45.6717 58.1779 45.6703 58.1778 45.6701C58.1776 45.6699 58.1796 45.673 58.1839 45.68C58.1882 45.6869 58.1939 45.6964 58.2013 45.7088C58.2162 45.7339 58.2354 45.7671 58.2593 45.8094C58.3578 45.9841 58.5015 46.253 58.6897 46.6168C59.0634 47.339 59.5782 48.3688 60.1919 49.6175C61.4176 52.1115 63.0188 55.4398 64.6337 58.8387C66.2484 62.2371 67.8737 65.6993 69.1475 68.4601C70.4491 71.2812 71.3222 73.2395 71.4966 73.7323L73.382 73.0649Z" fill="#606060" mask="url(#path-1-inside-1_102_2443)"/>
</svg>
