<?xml version="1.0" encoding="UTF-8"?>
<svg id="Layer_1" data-name="Layer 1" xmlns="http://www.w3.org/2000/svg" viewBox="0 0 342.51 314.45">
  <defs>
    <style>
      .cls-1 {
        fill: none;
        stroke: #000;
        stroke-miterlimit: 10;
        stroke-width: 8px;
      }
    </style>
  </defs>
  <path class="cls-1" d="m169.03,5.32h0c1.01-1.78,3.59-1.76,4.57.04,20.15,37.04,40.24,74.12,60.47,111.12,15.3,28.14,30.71,56.23,45.96,84.4.69,1.27.21,2.86-1.07,3.53-35.47,18.79-71.04,37.41-106.46,56.29-.76.4-1.67.41-2.43,0-35.44-18.86-71-37.49-106.48-56.29-1.28-.68-1.75-2.26-1.06-3.53,5.68-10.44,11.32-20.9,16.99-31.34,9.96-17.99,19.66-36.12,29.56-54.14,20.05-36.65,39.9-73.42,59.94-110.09Zm1.23,109.6c-12.1,22.36-24.16,44.69-36.42,66.96-.01.02,0,.05.02.06,11.94,6.53,24.06,12.68,36.04,19.13.83.52,1.95.53,2.78,0,11.98-6.45,24.13-12.62,36.06-19.14.01,0,.02-.02,0-.04-2.32-3.83-4.26-7.87-6.48-11.75-9.96-18.42-20.04-36.78-29.96-55.23-.44-.82-1.62-.82-2.06,0Z"/>
  <path class="cls-1" d="m43.49,235.93c1.44-2.57,4.65-3.52,7.26-2.15,12.61,6.62,25.2,13.28,37.83,19.87,2.69,1.4,3.7,4.73,2.27,7.4-2.27,4.22-4.74,8.34-6.9,12.61-6.2,11.25-12.3,22.58-18.5,33.81-.95,1.72-2.76,2.8-4.73,2.81-14.04.08-28.09,0-42.13.03,0,0-8,.09-12.66.14-1.46.02-2.39-1.54-1.69-2.81,6.02-10.99,27.06-49.89,39.26-71.7Z"/>
  <path class="cls-1" d="m251.77,254.86c14.23-7.35,28.4-14.82,42.6-22.21,1.39-.72,3.11-.22,3.88,1.15,12.75,22.57,25.02,45.4,37.58,68.07.73,1.4,1.53,2.76,2.3,4.14,1.08,1.94-.32,4.32-2.54,4.33-18.32.02-36.65.03-54.97-.01-1,0-1.95-.51-2.46-1.37-1.72-2.88-3.19-5.97-4.89-8.87-6.38-11.59-12.75-23.18-19.11-34.78-1.14-2.2-2.47-4.31-3.62-6.5-.75-1.43-.2-3.2,1.24-3.94Z"/>
</svg>