<svg width="512" height="512" viewBox="0 0 512 512" fill="none" xmlns="http://www.w3.org/2000/svg">
<circle cx="256" cy="256" r="256" fill="#F7931A"/>
<path d="M389.844 221.23C395.442 183.791 366.947 163.666 327.981 150.241L340.622 99.5272L309.759 91.8349L297.453 141.214C289.339 139.189 281.007 137.282 272.726 135.391L285.12 85.6867L254.276 77.9944L241.629 128.692C234.915 127.163 228.32 125.652 221.922 124.059L221.958 123.9L179.397 113.269L171.187 146.241C171.187 146.241 194.085 151.491 193.602 151.814C206.1 154.934 208.36 163.21 207.985 169.769L193.586 227.544C194.446 227.763 195.562 228.079 196.794 228.574C195.764 228.319 194.669 228.039 193.532 227.767L173.349 308.702C171.822 312.5 167.945 318.2 159.207 316.035C159.517 316.484 136.775 310.436 136.775 310.436L121.452 345.774L161.616 355.788C169.088 357.663 176.409 359.624 183.62 361.468L170.849 412.763L201.676 420.456L214.324 369.705C222.745 371.991 230.918 374.101 238.919 376.089L226.314 426.601L257.179 434.293L269.949 383.094C322.577 393.057 362.149 389.04 378.805 341.425C392.227 303.09 378.137 280.978 350.45 266.559C370.616 261.907 385.805 248.64 389.855 221.234L389.846 221.227L389.844 221.23ZM319.33 320.136C309.792 358.471 245.264 337.748 224.343 332.552L241.291 264.594C262.21 269.818 329.298 280.156 319.331 320.136H319.33ZM328.874 220.674C320.174 255.544 266.466 237.829 249.044 233.485L264.41 171.851C281.832 176.195 337.938 184.303 328.877 220.674H328.874Z" fill="white"/>
</svg>
