<svg width="164" height="164" viewBox="0 0 164 164" xmlns="http://www.w3.org/2000/svg">
    <path d="M34.3723 113.738L35.2112 114.283L35.2163 114.275L34.3723 113.738ZM41.1857 111.768L41.6503 110.882L41.6413 110.877L41.1857 111.768ZM48.6975 116.103L49.2557 115.273L49.2529 115.271L48.6975 116.103ZM50.8527 123.098L49.9267 122.72L49.9259 122.722L50.8527 123.098ZM47.1447 130.847L48.0348 131.302L48.0366 131.299L47.1447 130.847ZM44.5139 135.51L45.3585 136.045L45.3602 136.042L44.5139 135.51ZM38.6506 139.089L38.5701 138.092L38.5603 138.093L38.6506 139.089ZM32.8186 139.385L32.7566 140.383L32.8094 140.386L32.8622 140.384L32.8186 139.385ZM27.1779 138.958L27.0348 139.948L27.0476 139.949L27.1779 138.958ZM24.135 136.561L23.1679 136.815L23.1708 136.826L23.1739 136.837L24.135 136.561ZM24.1027 134.262L25.089 134.427L25.09 134.421L24.1027 134.262ZM26.0998 129.402L26.9933 129.851L26.9952 129.848L26.0998 129.402ZM31.0441 119.682L30.1577 119.219L30.1576 119.219L31.0441 119.682ZM122.913 111.479L123.232 112.427L123.241 112.424L123.249 112.422L122.913 111.479ZM128.747 113.384L127.928 113.956L127.928 113.957L128.747 113.384ZM131.649 118.406L130.76 118.866L130.764 118.872L130.767 118.878L131.649 118.406ZM135.212 125.399L134.315 125.842L134.317 125.846L135.212 125.399ZM138.934 133.081L139.844 132.667L139.842 132.662L138.934 133.081ZM139.374 135.183L138.375 135.228L138.376 135.24L138.377 135.251L139.374 135.183ZM136.6 138.827L136.389 137.85L136.384 137.851L136.6 138.827ZM133.383 139.221L133.443 140.219L133.444 140.219L133.383 139.221ZM130.04 139.254L130.04 138.254L129.04 138.254V139.254H130.04ZM130.04 139.385L129.973 140.382L131.04 140.454V139.385H130.04ZM124.174 138.958L124.293 137.965L124.284 137.964L124.275 137.963L124.174 138.958ZM118.404 134.854L119.283 134.378L119.279 134.372L119.276 134.366L118.404 134.854ZM112.789 124.02L111.888 124.453L111.892 124.463L112.789 124.02ZM112.032 121L113.028 120.907L113.028 120.903L112.032 121ZM114.618 116.042L115.174 116.873L115.178 116.871L114.618 116.042ZM119.854 112.858L119.38 111.978L119.367 111.985L119.354 111.992L119.854 112.858ZM79.382 25.1211L80.0962 25.8212L80.1042 25.8128L79.382 25.1211ZM82.926 24.3945L83.4568 23.547L83.4501 23.5428L83.4432 23.5387L82.926 24.3945ZM84.5715 25.9795L83.716 26.4973L83.7211 26.5056L84.5715 25.9795ZM87.3234 30.8349L86.4352 31.2944L86.438 31.2997L87.3234 30.8349ZM91.0246 38.167L91.919 37.7196L91.9173 37.7163L91.0246 38.167ZM96.6252 49.3642L95.7309 49.8116L95.731 49.8119L96.6252 49.3642ZM101.023 58.0508L101.917 57.604L101.917 57.603L101.023 58.0508ZM104.914 65.7802L105.81 65.3354L105.806 65.3277L104.914 65.7802ZM108.932 73.7724L108.036 74.2173L108.041 74.2267L108.932 73.7724ZM112.792 81.4355L113.687 80.9897L113.683 80.9811L112.792 81.4355ZM117.696 91.3115L116.792 91.74L116.799 91.7541L116.806 91.7679L117.696 91.3115ZM118.771 94.2841L119.741 94.0417L119.738 94.0291L119.734 94.0167L118.771 94.2841ZM116.904 99.7998L117.521 100.587L117.523 100.585L116.904 99.7998ZM112.159 102.904L112.668 103.765L112.67 103.764L112.159 102.904ZM103.585 107.825L103.091 106.956L103.089 106.957L103.585 107.825ZM94.5686 112.945L94.0723 112.077L94.0695 112.079L94.5686 112.945ZM86.2795 117.636L85.8004 116.758L85.7939 116.762L85.7874 116.765L86.2795 117.636ZM82.3244 119.022L82.3125 120.022H82.3244V119.022ZM76.2502 117.305L76.7475 116.437L76.7381 116.432L76.2502 117.305ZM66.9172 111.987L67.4159 111.12L67.4131 111.119L66.9172 111.987ZM51.4465 103.103L51.9467 102.237L51.9404 102.233L51.9341 102.229L51.4465 103.103ZM47.4602 100.691L48.0361 99.8739L48.0302 99.8697L48.0241 99.8656L47.4602 100.691ZM45.2453 98.5781L44.4611 99.1986L44.4639 99.2021L45.2453 98.5781ZM44.6438 93.4912L43.7157 93.1187L43.7145 93.1217L44.6438 93.4912ZM47.966 86.3242L48.8608 86.7708L48.8648 86.7626L47.966 86.3242ZM53.3127 75.7216L54.2034 76.1762L54.2067 76.1698L53.3127 75.7216ZM59.7356 63.0058L60.6282 63.4566L60.6282 63.4565L59.7356 63.0058ZM66.2209 50.124L67.1124 50.5772L67.1167 50.5684L66.2209 50.124ZM71.8205 39.0263L70.9282 38.5749L70.9277 38.5759L71.8205 39.0263ZM76.2814 30.1416L77.1699 30.6006L77.1737 30.593L76.2814 30.1416ZM81.4709 63.0713L81.9631 62.2008L81.0514 61.6852L80.5786 62.6198L81.4709 63.0713ZM68.0881 89.6269L67.1944 89.1782L66.771 90.0215L67.5883 90.4931L68.0881 89.6269ZM71.5676 91.6416L72.0662 90.7747L72.0582 90.7702L72.0502 90.7657L71.5676 91.6416ZM80.8693 96.959L81.3756 96.0965L81.368 96.0921L80.8693 96.959ZM82.3244 96.9922L82.7867 97.8789L82.805 97.8694L82.8228 97.8591L82.3244 96.9922ZM90.8039 92.1367L91.2981 93.0061L91.3034 93.003L90.8039 92.1367ZM95.0744 89.6601L95.5783 90.5239L96.3104 90.0968L96.0091 89.3046L95.0744 89.6601ZM34.3723 113.738L35.2163 114.275C35.938 113.139 36.8002 112.492 37.6876 112.236C38.571 111.982 39.6004 112.08 40.7302 112.658L41.1857 111.768L41.6413 110.877C40.141 110.11 38.5876 109.896 37.1339 110.315C35.6841 110.732 34.4546 111.744 33.5283 113.202L34.3723 113.738ZM41.1857 111.768L40.7212 112.653C43.2833 113.997 45.7799 115.356 48.142 116.934L48.6975 116.103L49.2529 115.271C46.7976 113.631 44.2222 112.231 41.6503 110.882L41.1857 111.768ZM48.6975 116.103L48.1393 116.932C49.2217 117.66 49.8923 118.504 50.1915 119.418C50.4886 120.326 50.4576 121.418 49.9267 122.72L50.8527 123.098L51.7788 123.475C52.4525 121.822 52.564 120.237 52.0923 118.796C51.6227 117.362 50.6134 116.186 49.2557 115.273L48.6975 116.103ZM50.8527 123.098L49.9259 122.722C48.8688 125.332 47.5626 127.812 46.2529 130.394L47.1447 130.847L48.0366 131.299C49.3251 128.758 50.6823 126.182 51.7796 123.473L50.8527 123.098ZM47.1447 130.847L46.2546 130.391C45.4407 131.981 44.5988 133.497 43.6675 134.977L44.5139 135.51L45.3602 136.042C46.3304 134.501 47.2012 132.93 48.0348 131.302L47.1447 130.847ZM44.5139 135.51L43.6692 134.974C42.4434 136.909 40.6979 137.92 38.5701 138.092L38.6506 139.089L38.7311 140.086C41.4836 139.863 43.7957 138.511 45.3585 136.045L44.5139 135.51ZM38.6506 139.089L38.5603 138.093C36.7845 138.254 35.0572 138.286 32.7749 138.386L32.8186 139.385L32.8622 140.384C35.0803 140.287 36.903 140.251 38.7409 140.085L38.6506 139.089ZM32.8186 139.385L32.8805 138.387C31.2553 138.286 29.2593 138.223 27.3083 137.967L27.1779 138.958L27.0476 139.949C29.0894 140.218 31.2128 140.287 32.7566 140.383L32.8186 139.385ZM27.1779 138.958L27.3211 137.968C26.1833 137.804 25.3917 137.313 25.096 136.284L24.135 136.561L23.1739 136.837C23.7657 138.895 25.4469 139.718 27.0348 139.948L27.1779 138.958ZM24.135 136.561L25.102 136.306C24.962 135.774 24.9744 135.11 25.0889 134.427L24.1027 134.262L23.1165 134.096C22.9776 134.924 22.9276 135.902 23.1679 136.815L24.135 136.561ZM24.1027 134.262L25.09 134.421C25.3435 132.845 26.1496 131.53 26.9933 129.851L26.0998 129.402L25.2064 128.953C24.4654 130.427 23.4325 132.132 23.1154 134.103L24.1027 134.262ZM26.0998 129.402L26.9952 129.848C28.6093 126.601 30.2545 123.356 31.9307 120.144L31.0441 119.682L30.1576 119.219C28.4742 122.444 26.823 125.701 25.2044 128.957L26.0998 129.402ZM31.0441 119.682L31.9306 120.144C32.9832 118.128 34.0063 116.139 35.2111 114.283L34.3723 113.738L33.5334 113.194C32.2663 115.147 31.1967 117.229 30.1577 119.219L31.0441 119.682ZM122.913 111.479L123.249 112.422C124.298 112.048 125.147 112.023 125.855 112.251C126.564 112.479 127.26 113.001 127.928 113.956L128.747 113.384L129.567 112.811C128.721 111.6 127.698 110.743 126.468 110.347C125.237 109.951 123.925 110.058 122.578 110.537L122.913 111.479ZM128.747 113.384L127.928 113.957C128.988 115.471 129.875 117.154 130.76 118.866L131.649 118.406L132.537 117.947C131.656 116.244 130.713 114.448 129.566 112.81L128.747 113.384ZM131.649 118.406L130.767 118.878C131.989 121.161 133.15 123.48 134.315 125.842L135.212 125.399L136.109 124.957C134.941 122.591 133.768 120.247 132.53 117.934L131.649 118.406ZM135.212 125.399L134.317 125.846C135.578 128.372 136.834 130.921 138.026 133.501L138.934 133.081L139.842 132.662C138.636 130.054 137.369 127.483 136.107 124.953L135.212 125.399ZM138.934 133.081L138.024 133.495C138.233 133.955 138.347 134.601 138.375 135.228L139.374 135.183L140.373 135.137C140.339 134.385 140.202 133.454 139.844 132.667L138.934 133.081ZM139.374 135.183L138.377 135.251C138.425 135.954 138.244 136.521 137.924 136.941C137.605 137.362 137.099 137.697 136.389 137.85L136.6 138.827L136.81 139.805C137.93 139.563 138.875 138.995 139.516 138.152C140.159 137.308 140.45 136.249 140.372 135.114L139.374 135.183ZM136.6 138.827L136.384 137.851C135.423 138.063 134.382 138.158 133.322 138.223L133.383 139.221L133.444 140.219C134.528 140.153 135.696 140.051 136.816 139.804L136.6 138.827ZM133.383 139.221L133.323 138.222C132.259 138.286 131.184 138.254 130.04 138.254L130.04 139.254L130.04 140.254C131.105 140.254 132.299 140.287 133.443 140.219L133.383 139.221ZM130.04 139.254H129.04V139.385H130.04H131.04V139.254H130.04ZM130.04 139.385L130.107 138.387C128.106 138.253 126.182 138.191 124.293 137.965L124.174 138.958L124.055 139.951C126.013 140.185 128.065 140.255 129.973 140.382L130.04 139.385ZM124.174 138.958L124.275 137.963C122.08 137.74 120.418 136.476 119.283 134.378L118.404 134.854L117.524 135.33C118.911 137.894 121.097 139.651 124.073 139.953L124.174 138.958ZM118.404 134.854L119.276 134.366C117.303 130.845 115.483 127.22 113.686 123.578L112.789 124.02L111.892 124.463C113.691 128.109 115.531 131.773 117.531 135.343L118.404 134.854ZM112.789 124.02L113.691 123.588C113.32 122.816 113.117 121.861 113.028 120.907L112.032 121L111.037 121.093C111.137 122.174 111.376 123.388 111.888 124.453L112.789 124.02ZM112.032 121L113.028 120.903C112.853 119.114 113.706 117.854 115.174 116.873L114.618 116.042L114.063 115.21C112.188 116.463 110.77 118.356 111.037 121.097L112.032 121ZM114.618 116.042L115.178 116.871C116.846 115.745 118.582 114.745 120.353 113.725L119.854 112.858L119.354 111.992C117.594 113.007 115.796 114.041 114.059 115.213L114.618 116.042ZM119.854 112.858L120.327 113.739C121.285 113.224 122.238 112.762 123.232 112.427L122.913 111.479L122.594 110.532C121.445 110.919 120.378 111.441 119.38 111.978L119.854 112.858ZM79.382 25.1211L80.1042 25.8128C80.5647 25.332 80.9817 25.1037 81.3278 25.0296C81.6518 24.9602 82.0031 25.0052 82.4087 25.2503L82.926 24.3945L83.4432 23.5387C82.6466 23.0572 81.7795 22.8874 80.9089 23.074C80.0604 23.2558 79.3066 23.7541 78.6599 24.4294L79.382 25.1211ZM82.926 24.3945L82.3951 25.242C82.9423 25.5847 83.4417 26.0441 83.716 26.4973L84.5715 25.9795L85.427 25.4616C84.9417 24.6599 84.175 23.9969 83.4568 23.547L82.926 24.3945ZM84.5715 25.9795L83.7211 26.5056C84.6883 28.069 85.5926 29.6655 86.4352 31.2944L87.3234 30.8349L88.2116 30.3755C87.3457 28.7015 86.4162 27.0606 85.4219 25.4534L84.5715 25.9795ZM87.3234 30.8349L86.438 31.2997C87.6992 33.7024 88.8882 36.1539 90.1319 38.6176L91.0246 38.167L91.9173 37.7163C90.6938 35.2927 89.4786 32.7893 88.2089 30.3702L87.3234 30.8349ZM91.0246 38.167L90.1303 38.6143C91.9971 42.3466 93.8639 46.0796 95.7309 49.8116L96.6252 49.3642L97.5195 48.9168C95.6526 45.1849 93.7859 41.4522 91.919 37.7196L91.0246 38.167ZM96.6252 49.3642L95.731 49.8119C96.4604 51.2687 97.1974 52.7168 97.9327 54.1613C98.6686 55.6068 99.4026 57.0488 100.128 58.4985L101.023 58.0508L101.917 57.603C101.187 56.1464 100.45 54.6985 99.7151 53.254C98.9793 51.8085 98.2453 50.3664 97.5194 48.9166L96.6252 49.3642ZM101.023 58.0508L100.128 58.4975C101.415 61.0758 102.714 63.6547 104.023 66.2328L104.914 65.7802L105.806 65.3277C104.499 62.7532 103.203 60.1783 101.917 57.604L101.023 58.0508ZM104.914 65.7802L104.019 66.225C104.685 67.5665 105.359 68.899 106.031 70.2278C106.703 71.5576 107.374 72.8837 108.036 74.2173L108.932 73.7724L109.827 73.3276C109.161 71.9864 108.487 70.654 107.815 69.3252C107.143 67.9954 106.472 66.6693 105.81 65.3354L104.914 65.7802ZM108.932 73.7724L108.041 74.2267C108.687 75.4946 109.327 76.7712 109.968 78.0517C110.608 79.331 111.251 80.6142 111.901 81.8899L112.792 81.4355L113.683 80.9811C113.036 79.7133 112.397 78.4367 111.756 77.1563C111.116 75.877 110.473 74.5938 109.823 73.3182L108.932 73.7724ZM112.792 81.4355L111.897 81.8813C113.551 85.2032 115.215 88.415 116.792 91.74L117.696 91.3115L118.599 90.883C117.012 87.5359 115.323 84.2734 113.687 80.9897L112.792 81.4355ZM117.696 91.3115L116.806 91.7679C117.231 92.5962 117.525 93.5359 117.807 94.5516L118.771 94.2841L119.734 94.0167C119.448 92.9841 119.109 91.8766 118.585 90.8551L117.696 91.3115ZM118.771 94.2841L117.801 94.5266C118.271 96.408 117.666 97.9264 116.286 99.0144L116.904 99.7998L117.523 100.585C119.496 99.0304 120.41 96.7185 119.741 94.0417L118.771 94.2841ZM116.904 99.7998L116.288 99.0124C114.828 100.155 113.271 101.081 111.649 102.044L112.159 102.904L112.67 103.764C114.275 102.811 115.944 101.822 117.521 100.587L116.904 99.7998ZM112.159 102.904L111.65 102.044C108.812 103.722 105.944 105.334 103.091 106.956L103.585 107.825L104.079 108.695C106.921 107.08 109.811 105.455 112.668 103.765L112.159 102.904ZM103.585 107.825L103.089 106.957C101.588 107.815 100.087 108.664 98.5843 109.515C97.0818 110.365 95.5772 111.217 94.0723 112.077L94.5686 112.945L95.0648 113.813C96.5654 112.956 98.0664 112.106 99.5694 111.255C101.072 110.405 102.577 109.553 104.081 108.693L103.585 107.825ZM94.5686 112.945L94.0695 112.079C91.3151 113.665 88.5726 115.245 85.8004 116.758L86.2795 117.636L86.7586 118.513C89.5543 116.988 92.3168 115.396 95.0677 113.812L94.5686 112.945ZM86.2795 117.636L85.7874 116.765C85.0783 117.166 84.3582 117.487 83.7259 117.706C83.0725 117.932 82.5867 118.022 82.3244 118.022V119.022V120.022C82.9159 120.022 83.6485 119.849 84.3795 119.596C85.1317 119.336 85.9622 118.964 86.7716 118.506L86.2795 117.636ZM82.3244 119.022L82.3363 118.022C79.8076 117.992 78.2674 117.308 76.7475 116.437L76.2502 117.305L75.7529 118.172C77.46 119.151 79.3365 119.987 82.3125 120.022L82.3244 119.022ZM76.2502 117.305L76.7381 116.432C73.6125 114.685 70.5171 112.905 67.4159 111.12L66.9172 111.987L66.4185 112.854C69.5183 114.637 72.6242 116.424 75.7623 118.178L76.2502 117.305ZM66.9172 111.987L67.4131 111.119C62.2472 108.169 57.0917 105.208 51.9467 102.237L51.4465 103.103L50.9463 103.968C56.0943 106.942 61.2526 109.904 66.4213 112.856L66.9172 111.987ZM51.4465 103.103L51.9341 102.229C50.5661 101.465 49.2517 100.73 48.0361 99.8739L47.4602 100.691L46.8842 101.509C48.1996 102.436 49.6068 103.22 50.9589 103.976L51.4465 103.103ZM47.4602 100.691L48.0241 99.8656C47.3045 99.3741 46.6153 98.6911 46.0267 97.9541L45.2453 98.5781L44.4639 99.2021C45.1408 100.05 45.971 100.885 46.8962 101.517L47.4602 100.691ZM45.2453 98.5781L46.0295 97.9576C45.0903 96.7707 44.9826 95.3458 45.573 93.8606L44.6438 93.4912L43.7145 93.1217C42.913 95.1378 42.9958 97.3468 44.4611 99.1986L45.2453 98.5781ZM44.6438 93.4912L45.5718 93.8636C46.5356 91.4622 47.6896 89.1172 48.8608 86.7708L47.966 86.3242L47.0713 85.8776C45.9016 88.2212 44.7134 90.6327 43.7157 93.1187L44.6438 93.4912ZM47.966 86.3242L48.8648 86.7626C50.5997 83.2058 52.3973 79.7154 54.2034 76.1762L53.3127 75.7216L52.422 75.2671C50.6208 78.7966 48.8122 82.3083 47.0672 85.8858L47.966 86.3242ZM53.3127 75.7216L54.2067 76.1698C56.3253 71.9435 58.4748 67.7213 60.6282 63.4566L59.7356 63.0058L58.8429 62.5551C56.6938 66.8112 54.5388 71.0445 52.4187 75.2735L53.3127 75.7216ZM59.7356 63.0058L60.6282 63.4565C62.7844 59.1858 64.9293 54.8717 67.1123 50.5771L66.2209 50.124L65.3295 49.6708C63.1473 53.9637 60.9892 58.304 58.8429 62.5551L59.7356 63.0058ZM66.2209 50.124L67.1167 50.5684C68.95 46.8727 70.8425 43.1846 72.7133 39.4768L71.8205 39.0263L70.9277 38.5759C69.0656 42.2664 67.1619 45.9769 65.3251 49.6796L66.2209 50.124ZM71.8205 39.0263L72.7128 39.4777C74.2136 36.5111 75.6504 33.5412 77.1699 30.6006L76.2814 30.1416L75.393 29.6825C73.8747 32.621 72.4015 35.6626 70.9282 38.5749L71.8205 39.0263ZM76.2814 30.1416L77.1737 30.593C78.0967 28.7689 78.8404 27.102 80.0961 25.8211L79.382 25.1211L78.668 24.421C77.139 25.9806 76.2375 28.0134 75.3892 29.6901L76.2814 30.1416ZM81.4709 63.0713L80.5786 62.6198C76.1169 71.4394 71.6556 80.2927 67.1944 89.1782L68.0881 89.6269L68.9818 90.0756C73.4421 81.1919 77.9025 72.3403 82.3632 63.5227L81.4709 63.0713ZM68.0881 89.6269L67.5883 90.4931C68.7598 91.169 69.9375 91.8851 71.085 92.5174L71.5676 91.6416L72.0502 90.7657C70.9198 90.1428 69.8205 89.472 68.5878 88.7608L68.0881 89.6269ZM71.5676 91.6416L71.069 92.5084C72.6213 93.4013 74.1735 94.2858 75.7235 95.1691C77.2741 96.0527 78.8227 96.9352 80.3707 97.8258L80.8693 96.959L81.368 96.0921C79.8159 95.1993 78.2638 94.3148 76.7138 93.4314C75.1631 92.5478 73.6145 91.6653 72.0662 90.7747L71.5676 91.6416ZM80.8693 96.959L80.3631 97.8214C80.7289 98.036 81.133 98.178 81.5794 98.1858C82.0241 98.1935 82.4264 98.0667 82.7867 97.8789L82.3244 96.9922L81.8622 96.1054C81.7163 96.1815 81.6441 96.1866 81.6143 96.1861C81.5863 96.1856 81.516 96.179 81.3756 96.0965L80.8693 96.959ZM82.3244 96.9922L82.8228 97.8591C85.6383 96.2404 88.4528 94.6233 91.2981 93.0061L90.8039 92.1367L90.3098 91.2673C87.4597 92.8873 84.6413 94.5067 81.826 96.1252L82.3244 96.9922ZM90.8039 92.1367L91.3034 93.003C92.7174 92.1877 94.1425 91.3614 95.5783 90.5239L95.0744 89.6601L94.5706 88.7963C93.1378 89.6321 91.7156 90.4567 90.3044 91.2704L90.8039 92.1367ZM95.0744 89.6601L96.0091 89.3046C95.7735 88.6853 94.8162 86.7018 93.5515 84.1519C92.2712 81.5706 90.6404 78.3388 89.0219 75.17C87.4036 72.0014 85.7959 68.8923 84.5619 66.5567C83.9454 65.3898 83.4196 64.411 83.0314 63.7131C82.838 63.3655 82.6741 63.0789 82.5479 62.8709C82.4858 62.7686 82.4252 62.6726 82.3704 62.5938C82.3437 62.5555 82.3086 62.507 82.2683 62.4589C82.2571 62.4455 82.1451 62.3037 81.9631 62.2008L81.4709 63.0713L80.9787 63.9417C80.8751 63.8832 80.809 63.82 80.7887 63.8004C80.7608 63.7734 80.7424 63.7519 80.7354 63.7435C80.7213 63.7267 80.718 63.7208 80.7286 63.736C80.7483 63.7643 80.7838 63.8191 80.838 63.9084C80.9445 64.0838 81.0939 64.3443 81.2835 64.6852C81.6612 65.3642 82.1791 66.328 82.7935 67.491C84.0215 69.8153 85.6247 72.9154 87.2408 76.0797C88.8568 79.2436 90.4839 82.4681 91.7598 85.0406C93.0512 87.6444 93.9482 89.5122 94.1398 90.0157L95.0744 89.6601Z"
          fill="black" />
</svg>
