<svg width="256" height="256" viewBox="0 0 256 256" fill="none" xmlns="http://www.w3.org/2000/svg">
<path d="M256 128C256 248 248 256 128 256C8 256 0 252 0 128C0 4 4 0 128 0C252 0 256 8 256 128Z" fill="#086C81"/>
<path fill-rule="evenodd" clip-rule="evenodd" d="M128.876 179.765C125.06 179.719 122.691 178.665 120.453 177.383C116.11 174.956 111.811 172.482 107.511 170.009C100.346 165.918 93.1947 161.811 86.0583 157.689C84.1719 156.636 82.2854 155.582 80.5306 154.346C79.3899 153.567 78.337 152.514 77.4596 151.414C75.7925 149.308 75.6609 146.788 76.626 144.361C77.986 140.972 79.6093 137.674 81.2325 134.422C83.6454 129.476 86.1461 124.621 88.6467 119.721C91.5861 113.858 94.5693 107.996 97.5525 102.087C100.536 96.1792 103.519 90.1794 106.546 84.2254C109.091 79.0958 111.723 73.9661 114.311 68.8365C116.373 64.7603 118.391 60.5925 120.497 56.5162C121.725 54.0888 122.866 51.524 124.796 49.5546C126.332 47.9516 128.043 47.5394 129.71 48.547C130.587 49.0966 131.465 49.8752 131.991 50.7454C133.351 52.9438 134.624 55.188 135.808 57.478C137.563 60.8215 139.23 64.2565 140.941 67.6457C143.529 72.8211 146.118 77.9966 148.706 83.172C150.724 87.2024 152.786 91.187 154.804 95.2174C156.588 98.7899 158.387 102.362 160.2 105.935C162.043 109.645 163.929 113.309 165.772 117.018C167.571 120.545 169.326 124.117 171.124 127.644C173.406 132.224 175.731 136.712 177.924 141.338C178.582 142.621 179.021 144.04 179.416 145.46C180.206 148.621 179.153 151.277 176.828 153.109C174.722 154.758 172.484 156.086 170.247 157.414C166.298 159.75 162.306 161.994 158.358 164.238C154.19 166.62 150.022 168.956 145.855 171.337C142.038 173.536 138.221 175.734 134.36 177.841C132.255 179.032 130.061 179.765 128.876 179.765ZM109.134 139.002C110.802 139.964 112.381 140.926 113.96 141.796C118.26 144.269 122.559 146.697 126.858 149.17C127.56 149.582 128.175 149.582 128.876 149.216C132.781 146.972 136.686 144.727 140.634 142.483C142.593 141.354 144.568 140.209 146.556 139.048C145.372 135.934 128.35 102.545 127.692 102.179C121.506 114.408 115.32 126.682 109.134 139.002Z" fill="#CBDDE1"/>
<path d="M195.042 208C192.331 207.818 189.576 207.727 186.908 207.408C183.322 207.044 180.655 204.95 178.906 201.718C176.151 196.801 173.614 191.748 171.122 186.695C170.509 185.42 170.203 183.918 170.072 182.506C169.766 179.365 171.34 177.18 173.658 175.632C176.019 174.039 178.468 172.628 180.917 171.216C182.273 170.488 183.672 169.805 185.159 169.304C188.482 168.121 191.15 168.94 193.249 171.945C194.78 174.13 196.048 176.543 197.272 178.91C198.978 182.097 200.596 185.329 202.214 188.607C203.963 192.112 205.712 195.663 207.374 199.259C207.768 200.124 207.942 201.217 207.986 202.173C208.161 204.722 206.674 206.68 204.138 207.226C202.695 207.545 201.164 207.681 199.677 207.772C198.147 207.863 196.573 207.818 195.042 207.818C195.042 207.879 195.042 207.939 195.042 208Z" fill="#CBDDE1"/>
<path d="M60.2287 208C58.0313 207.863 55.1746 207.772 52.4058 207.408C50.5161 207.135 48.8021 206.224 48.1868 204.084C47.9231 203.082 47.967 201.944 48.1428 200.897C48.5384 198.438 49.8129 196.343 50.9116 194.157C53.153 189.649 55.4383 185.142 57.7676 180.679C59.2179 177.902 60.6682 175.078 62.3822 172.437C64.6675 168.84 68.1834 167.838 71.8311 169.705C75.3909 171.572 78.9068 173.485 82.2469 175.716C85.6309 177.993 86.9055 181.317 85.2354 185.415C83.7412 189.103 81.8953 192.609 80.0934 196.161C78.9508 198.392 77.7642 200.532 76.4457 202.627C74.512 205.678 71.6993 207.317 68.3152 207.59C65.8102 207.818 63.349 207.863 60.2287 208Z" fill="#CBDDE1"/>
</svg>
