<svg width="263" height="263" viewBox="0 0 263 263" fill="none" xmlns="http://www.w3.org/2000/svg">
	<path d="M93.6667 223.648V208.375H37.6361C31.7583 208.375 26.8517 206.402 22.9161 202.456C18.972 198.501 17 193.577 17 187.683V49.6922C17 43.7984 18.972 38.8784 22.9161 34.9322C26.8517 30.9774 31.7583 29 37.6361 29H124.627C126.45 29 127.971 29.6107 129.189 30.8322C130.407 32.0622 131.016 33.5869 131.016 35.4063C131.016 37.2256 130.407 38.7503 129.189 39.9803C127.971 41.2103 126.45 41.821 124.627 41.8125H37.6361C35.6768 41.8125 33.8752 42.6325 32.2311 44.2725C30.5956 45.921 29.7778 47.7276 29.7778 49.6922V187.683C29.7778 189.647 30.5956 191.454 32.2311 193.103C33.8752 194.743 35.6768 195.563 37.6361 195.563H226.364C228.323 195.563 230.125 194.743 231.769 193.103C233.404 191.454 234.222 189.647 234.222 187.683V169.938C234.222 168.118 234.831 166.593 236.049 165.363C237.276 164.142 238.797 163.531 240.611 163.531C242.426 163.531 243.946 164.142 245.173 165.363C246.391 166.593 247 168.118 247 169.938V187.683C247 193.577 245.032 198.497 241.097 202.443C237.153 206.398 232.242 208.375 226.364 208.375H170.333V223.648C170.333 226.62 169.354 229.089 167.394 231.053C165.435 233.018 162.973 234 160.009 234H103.991C101.027 234 98.5648 233.018 96.6055 231.053C94.6463 229.089 93.6667 226.62 93.6667 223.648ZM187.532 123.39V35.4063C187.532 33.5869 188.141 32.0622 189.359 30.8322C190.586 29.6107 192.107 29 193.921 29C195.744 29 197.265 29.6107 198.483 30.8322C199.701 32.0622 200.31 33.5869 200.31 35.4063V123.39L235.896 87.7838C237.089 86.5879 238.499 86.0199 240.126 86.0797C241.761 86.1395 243.201 86.7929 244.444 88.04C245.637 89.2358 246.233 90.705 246.233 92.4475C246.233 94.19 245.637 95.6592 244.444 96.855L201.153 140.277C199.083 142.344 196.673 143.377 193.921 143.377C191.17 143.377 188.763 142.344 186.702 140.277L143.155 96.6116C141.962 95.4157 141.392 93.9594 141.443 92.2425C141.502 90.5256 142.154 89.0394 143.398 87.7838C144.59 86.5879 146.06 85.99 147.806 85.99C149.535 85.99 151.001 86.5879 152.202 87.7838L187.532 123.403V123.39Z" fill="black" stroke="black" stroke-width="3"/>
</svg>
